{
  "source": "C:\\Users\\Peter\\Desktop\\stuff\\MIUN\\quantitative_research\\video_compression\\videos\\HEVC_CLASS_B\\BQTerrace_1920x1080_60.y4m",
  "output": "C:\\Users\\Peter\\Desktop\\stuff\\MIUN\\quantitative_research\\video_compression\\compressed_videos\\HEVC_CLASS_B\\h264\\12\\BQTerrace_1920x1080_60_h264.mp4",
  "codec": "h264",
  "ok": "Input #0, yuv4mpegpipe, from 'C:\\Users\\Peter\\Desktop\\stuff\\MIUN\\quantitative_research\\video_compression\\videos\\HEVC_CLASS_B\\BQTerrace_1920x1080_60.y4m':\n  Duration: 00:00:10.00, start: 0.000000, bitrate: 1492994 kb/s\n  Stream #0:0: Video: rawvideo (I420 / 0x30323449), yuv420p(progressive), 1920x1080, 60 fps, 60 tbr, 60 tbn\n[out#0/mp4 @ 00000230f413a8c0] Codec AVOption b:a (set bitrate (in bits/s)) has not been used for any stream. The most likely reason is either wrong type (e.g. a video option with no video streams) or that it is a private option of some decoder which was not actually used for any stream.\nStream mapping:\n  Stream #0:0 -> #0:0 (rawvideo (native) -> h264 (libx264))\nPress [q] to stop, [?] for help\n[libx264 @ 00000230f413cd40] using cpu capabilities: MMX2 SSE2Fast SSSE3 SSE4.2 AVX FMA3 BMI2 AVX2\n[libx264 @ 00000230f413cd40] profile High, level 5.0, 4:2:0, 8-bit\n[libx264 @ 00000230f413cd40] 264 - core 165 r3222 b35605a - H.264/MPEG-4 AVC codec - Copyleft 2003-2025 - http://www.videolan.org/x264.html - options: cabac=1 ref=5 deblock=1:0:0 analyse=0x3:0x113 me=hex subme=8 psy=1 psy_rd=1.00:0.00 mixed_ref=1 me_range=16 chroma_me=1 trellis=2 8x8dct=1 cqm=0 deadzone=21,11 fast_pskip=1 chroma_qp_offset=-2 threads=18 lookahead_threads=3 sliced_threads=0 nr=0 decimate=1 interlaced=0 bluray_compat=0 constrained_intra=0 bframes=3 b_pyramid=2 b_adapt=1 b_bias=0 direct=3 weightb=1 open_gop=0 weightp=2 keyint=250 keyint_min=25 scenecut=40 intra_refresh=0 rc_lookahead=50 rc=cbr mbtree=1 bitrate=12000 ratetol=1.0 qcomp=0.60 qpmin=0 qpmax=69 qpstep=4 vbv_maxrate=12000 vbv_bufsize=12000 nal_hrd=none filler=0 ip_ratio=1.40 aq=1:1.00\nOutput #0, mp4, to 'C:\\Users\\Peter\\Desktop\\stuff\\MIUN\\quantitative_research\\video_compression\\compressed_videos\\HEVC_CLASS_B\\h264\\12\\BQTerrace_1920x1080_60_h264.mp4':\n  Metadata:\n    encoder         : Lavf62.3.100\n  Stream #0:0: Video: h264 (avc1 / 0x31637661), yuv420p(tv, progressive), 1920x1080, q=2-31, 12000 kb/s, 60 fps, 15360 tbn\n    Metadata:\n      encoder         : Lavc62.11.100 libx264\n    Side data:\n      cpb: bitrate max/min/avg: 12000000/0/12000000 buffer size: 12000000 vbv_delay: N/A\nframe=    0 fps=0.0 q=0.0 size=       0KiB time=N/A bitrate=N/A speed=N/A elapsed=0:00:00.52    \nframe=    0 fps=0.0 q=0.0 size=       0KiB time=N/A bitrate=N/A speed=N/A elapsed=0:00:01.04    \nframe=    0 fps=0.0 q=0.0 size=       0KiB time=N/A bitrate=N/A speed=N/A elapsed=0:00:01.57    \nframe=    0 fps=0.0 q=0.0 size=       0KiB time=N/A bitrate=N/A speed=N/A elapsed=0:00:02.09    \nframe=    0 fps=0.0 q=0.0 size=       0KiB time=N/A bitrate=N/A speed=N/A elapsed=0:00:02.75    \nframe=    0 fps=0.0 q=0.0 size=       0KiB time=N/A bitrate=N/A speed=N/A elapsed=0:00:03.45    \nframe=    8 fps=2.0 q=33.0 size=     256KiB time=N/A bitrate=N/A speed=N/A elapsed=0:00:04.08    \nframe=   14 fps=2.7 q=31.0 size=     256KiB time=00:00:00.20 bitrate=10487.7kbits/s speed=0.0387x elapsed=0:00:05.16    \nframe=   28 fps=4.6 q=29.0 size=     512KiB time=00:00:00.30 bitrate=13982.3kbits/s speed=0.049x elapsed=0:00:06.12    \nframe=   37 fps=5.3 q=29.0 size=     768KiB time=00:00:00.51 bitrate=12177.7kbits/s speed=0.0744x elapsed=0:00:06.94    \nframe=   41 fps=5.1 q=30.0 size=     768KiB time=00:00:00.65 bitrate=9679.8kbits/s speed=0.0808x elapsed=0:00:08.03    \nframe=   49 fps=5.5 q=30.0 size=     768KiB time=00:00:00.75 bitrate=8389.1kbits/s speed=0.0839x elapsed=0:00:08.94    \nframe=   57 fps=5.9 q=30.0 size=    1024KiB time=00:00:00.91 bitrate=9151.6kbits/s speed=0.0953x elapsed=0:00:09.62    \nframe=   61 fps=6.0 q=30.0 size=    1024KiB time=00:00:00.98 bitrate=8531.2kbits/s speed=0.096x elapsed=0:00:10.23    \nframe=   62 fps=5.6 q=30.0 size=    1280KiB time=00:00:00.98 bitrate=10663.9kbits/s speed=0.0891x elapsed=0:00:11.03    \nframe=   65 fps=5.6 q=30.0 size=    1280KiB time=00:00:01.05 bitrate=9986.8kbits/s speed=0.0905x elapsed=0:00:11.60    \nframe=   69 fps=5.7 q=30.0 size=    1280KiB time=00:00:01.11 bitrate=9390.6kbits/s speed=0.0916x elapsed=0:00:12.18    \nframe=   73 fps=5.7 q=30.0 size=    1536KiB time=00:00:01.18 bitrate=10633.8kbits/s speed=0.0928x elapsed=0:00:12.74    \nframe=   80 fps=6.0 q=30.0 size=    1536KiB time=00:00:01.28 bitrate=9805.2kbits/s speed=0.0964x elapsed=0:00:13.30    \nframe=   81 fps=5.8 q=30.0 size=    1536KiB time=00:00:01.31 bitrate=9556.9kbits/s speed=0.0949x elapsed=0:00:13.87    \nframe=   81 fps=5.6 q=30.0 size=    1536KiB time=00:00:01.31 bitrate=9556.9kbits/s speed=0.0913x elapsed=0:00:14.42    \nframe=   86 fps=5.7 q=30.0 size=    1792KiB time=00:00:01.40 bitrate=10486.0kbits/s speed=0.0934x elapsed=0:00:14.99    \nframe=   93 fps=6.0 q=30.0 size=    2048KiB time=00:00:01.51 bitrate=11062.2kbits/s speed=0.0975x elapsed=0:00:15.55    \nframe=   93 fps=5.8 q=30.0 size=    2048KiB time=00:00:01.51 bitrate=11062.2kbits/s speed=0.0941x elapsed=0:00:16.11    \nframe=   97 fps=5.8 q=31.0 size=    2048KiB time=00:00:01.55 bitrate=10824.3kbits/s speed=0.0926x elapsed=0:00:16.73    \nframe=  101 fps=5.8 q=31.0 size=    2048KiB time=00:00:01.65 bitrate=10168.2kbits/s speed=0.0954x elapsed=0:00:17.29    \nframe=  105 fps=5.9 q=31.0 size=    2304KiB time=00:00:01.70 bitrate=11102.8kbits/s speed=0.0952x elapsed=0:00:17.85    \nframe=  105 fps=5.7 q=31.0 size=    2304KiB time=00:00:01.71 bitrate=10995.0kbits/s speed=0.0931x elapsed=0:00:18.43    \nframe=  105 fps=5.5 q=31.0 size=    2304KiB time=00:00:01.71 bitrate=10995.0kbits/s speed=0.0903x elapsed=0:00:19.01    \nframe=  109 fps=5.6 q=31.0 size=    2304KiB time=00:00:01.78 bitrate=10584.0kbits/s speed=0.0911x elapsed=0:00:19.58    \nframe=  113 fps=5.6 q=31.0 size=    2560KiB time=00:00:01.85 bitrate=11336.2kbits/s speed=0.0918x elapsed=0:00:20.14    \nframe=  113 fps=5.5 q=31.0 size=    2560KiB time=00:00:01.85 bitrate=11336.2kbits/s speed=0.0893x elapsed=0:00:20.70    \nframe=  117 fps=5.5 q=31.0 size=    2560KiB time=00:00:01.91 bitrate=10941.9kbits/s speed=0.0902x elapsed=0:00:21.25    \nframe=  124 fps=5.7 q=31.0 size=    2816KiB time=00:00:02.03 bitrate=11345.4kbits/s speed=0.0932x elapsed=0:00:21.81    \nframe=  129 fps=5.8 q=31.0 size=    2816KiB time=00:00:02.11 bitrate=10898.8kbits/s speed=0.0946x elapsed=0:00:22.37    \nframe=  129 fps=5.6 q=31.0 size=    2816KiB time=00:00:02.11 bitrate=10898.8kbits/s speed=0.0922x elapsed=0:00:22.96    \nframe=  129 fps=5.5 q=31.0 size=    2816KiB time=00:00:02.11 bitrate=10898.8kbits/s speed=0.09x elapsed=0:00:23.52    \nframe=  129 fps=5.4 q=31.0 size=    2816KiB time=00:00:02.11 bitrate=10898.8kbits/s speed=0.0879x elapsed=0:00:24.07    \nframe=  129 fps=5.2 q=31.0 size=    2816KiB time=00:00:02.11 bitrate=10898.8kbits/s speed=0.0859x elapsed=0:00:24.62    \nframe=  133 fps=5.3 q=31.0 size=    3072KiB time=00:00:02.18 bitrate=11526.5kbits/s speed=0.0867x elapsed=0:00:25.19    \nframe=  141 fps=5.5 q=30.0 size=    3072KiB time=00:00:02.31 bitrate=10863.1kbits/s speed=0.09x elapsed=0:00:25.75    \nframe=  145 fps=5.5 q=30.0 size=    3328KiB time=00:00:02.38 bitrate=11439.2kbits/s speed=0.0905x elapsed=0:00:26.33    \nframe=  150 fps=5.6 q=30.0 size=    3328KiB time=00:00:02.46 bitrate=11052.7kbits/s speed=0.0917x elapsed=0:00:26.89    \nframe=  153 fps=5.6 q=29.0 size=    3328KiB time=00:00:02.51 bitrate=10833.1kbits/s speed=0.0917x elapsed=0:00:27.44    \nframe=  153 fps=5.5 q=29.0 size=    3328KiB time=00:00:02.51 bitrate=10833.1kbits/s speed=0.0899x elapsed=0:00:28.00    \nframe=  153 fps=5.4 q=29.0 size=    3328KiB time=00:00:02.51 bitrate=10833.1kbits/s speed=0.0881x elapsed=0:00:28.56    \nframe=  163 fps=5.6 q=29.0 size=    3584KiB time=00:00:02.65 bitrate=11079.4kbits/s speed=0.091x elapsed=0:00:29.10    \nframe=  165 fps=5.6 q=29.0 size=    3584KiB time=00:00:02.71 bitrate=10807.5kbits/s speed=0.0915x elapsed=0:00:29.67    \nframe=  165 fps=5.5 q=29.0 size=    3584KiB time=00:00:02.71 bitrate=10807.5kbits/s speed=0.0899x elapsed=0:00:30.22    \nframe=  168 fps=5.5 q=29.0 size=    3584KiB time=00:00:02.75 bitrate=10676.5kbits/s speed=0.0893x elapsed=0:00:30.78    \nframe=  178 fps=5.7 q=29.0 size=    3840KiB time=00:00:02.88 bitrate=10910.2kbits/s speed=0.092x elapsed=0:00:31.35    \nframe=  181 fps=5.7 q=30.0 size=    3840KiB time=00:00:02.98 bitrate=10544.5kbits/s speed=0.0935x elapsed=0:00:31.92    \nframe=  181 fps=5.6 q=30.0 size=    3840KiB time=00:00:02.98 bitrate=10544.5kbits/s speed=0.0919x elapsed=0:00:32.47    \nframe=  182 fps=5.5 q=30.0 size=    3840KiB time=00:00:02.98 bitrate=10544.5kbits/s speed=0.0903x elapsed=0:00:33.02    \nframe=  189 fps=5.6 q=30.0 size=    4096KiB time=00:00:03.11 bitrate=10766.2kbits/s speed=0.0928x elapsed=0:00:33.57    \nframe=  189 fps=5.5 q=30.0 size=    4096KiB time=00:00:03.11 bitrate=10766.2kbits/s speed=0.0913x elapsed=0:00:34.12    \nframe=  196 fps=5.7 q=30.0 size=    4096KiB time=00:00:03.23 bitrate=10377.8kbits/s speed=0.0932x elapsed=0:00:34.67    \nframe=  198 fps=5.6 q=30.0 size=    4096KiB time=00:00:03.26 bitrate=10271.9kbits/s speed=0.0927x elapsed=0:00:35.24    \nframe=  208 fps=5.8 q=30.0 size=    4352KiB time=00:00:03.43 bitrate=10384.1kbits/s speed=0.0959x elapsed=0:00:35.78    \nframe=  209 fps=5.8 q=30.0 size=    4352KiB time=00:00:03.45 bitrate=10333.9kbits/s speed=0.0949x elapsed=0:00:36.34    \nframe=  213 fps=5.8 q=30.0 size=    4608KiB time=00:00:03.51 bitrate=10734.3kbits/s speed=0.0953x elapsed=0:00:36.90    \nframe=  217 fps=5.8 q=30.0 size=    4608KiB time=00:00:03.58 bitrate=10534.6kbits/s speed=0.0956x elapsed=0:00:37.46    \nframe=  217 fps=5.7 q=30.0 size=    4608KiB time=00:00:03.58 bitrate=10534.6kbits/s speed=0.0942x elapsed=0:00:38.02    \nframe=  220 fps=5.7 q=30.0 size=    4608KiB time=00:00:03.60 bitrate=10485.9kbits/s speed=0.0933x elapsed=0:00:38.59    \nframe=  225 fps=5.7 q=30.0 size=    4608KiB time=00:00:03.71 bitrate=10156.7kbits/s speed=0.0949x elapsed=0:00:39.15    \nframe=  229 fps=5.8 q=30.0 size=    4864KiB time=00:00:03.78 bitrate=10532.1kbits/s speed=0.0953x elapsed=0:00:39.71    \nframe=  233 fps=5.8 q=29.0 size=    4864KiB time=00:00:03.85 bitrate=10349.7kbits/s speed=0.0956x elapsed=0:00:40.29    \nframe=  233 fps=5.7 q=29.0 size=    4864KiB time=00:00:03.85 bitrate=10349.7kbits/s speed=0.0943x elapsed=0:00:40.84    \nframe=  241 fps=5.8 q=29.0 size=    4864KiB time=00:00:03.98 bitrate=10003.2kbits/s speed=0.0962x elapsed=0:00:41.40    \nframe=  245 fps=5.8 q=29.0 size=    5120KiB time=00:00:04.01 bitrate=10442.3kbits/s speed=0.0957x elapsed=0:00:41.97    \nframe=  250 fps=5.9 q=29.0 size=    5120KiB time=00:00:04.13 bitrate=10147.6kbits/s speed=0.0972x elapsed=0:00:42.53    \nframe=  256 fps=5.9 q=29.0 size=    5376KiB time=00:00:04.23 bitrate=10403.3kbits/s speed=0.0982x elapsed=0:00:43.10    \nframe=  259 fps=5.9 q=30.0 size=    5376KiB time=00:00:04.28 bitrate=10281.8kbits/s speed=0.0981x elapsed=0:00:43.66    \nframe=  259 fps=5.9 q=30.0 size=    5376KiB time=00:00:04.28 bitrate=10281.8kbits/s speed=0.0968x elapsed=0:00:44.23    \nframe=  259 fps=5.8 q=30.0 size=    5376KiB time=00:00:04.28 bitrate=10281.8kbits/s speed=0.0956x elapsed=0:00:44.78    \nframe=  265 fps=5.8 q=30.0 size=    5632KiB time=00:00:04.38 bitrate=10525.7kbits/s speed=0.0966x elapsed=0:00:45.35    \nframe=  271 fps=5.9 q=30.0 size=    5632KiB time=00:00:04.48 bitrate=10290.9kbits/s speed=0.0976x elapsed=0:00:45.91    \nframe=  273 fps=5.9 q=30.0 size=    5632KiB time=00:00:04.50 bitrate=10252.8kbits/s speed=0.0968x elapsed=0:00:46.48    \nframe=  279 fps=5.9 q=29.0 size=    5888KiB time=00:00:04.61 bitrate=10448.0kbits/s speed=0.0981x elapsed=0:00:47.04    \nframe=  279 fps=5.9 q=29.0 size=    5888KiB time=00:00:04.61 bitrate=10448.0kbits/s speed=0.097x elapsed=0:00:47.59    \nframe=  279 fps=5.8 q=29.0 size=    5888KiB time=00:00:04.61 bitrate=10448.0kbits/s speed=0.0959x elapsed=0:00:48.15    \nframe=  280 fps=5.7 q=30.0 size=    5888KiB time=00:00:04.63 bitrate=10410.4kbits/s speed=0.0951x elapsed=0:00:48.71    \nframe=  290 fps=5.9 q=29.0 size=    5888KiB time=00:00:04.80 bitrate=10048.9kbits/s speed=0.0974x elapsed=0:00:49.26    \nframe=  297 fps=6.0 q=29.0 size=    6144KiB time=00:00:04.91 bitrate=10237.0kbits/s speed=0.0987x elapsed=0:00:49.82    \nframe=  299 fps=5.9 q=29.0 size=    6144KiB time=00:00:04.95 bitrate=10168.1kbits/s speed=0.0982x elapsed=0:00:50.38    \nframe=  299 fps=5.9 q=29.0 size=    6144KiB time=00:00:04.95 bitrate=10168.1kbits/s speed=0.0971x elapsed=0:00:50.96    \nframe=  307 fps=6.0 q=29.0 size=    6144KiB time=00:00:05.08 bitrate=9901.4kbits/s speed=0.0987x elapsed=0:00:51.52    \nframe=  307 fps=5.9 q=29.0 size=    6144KiB time=00:00:05.08 bitrate=9901.4kbits/s speed=0.0976x elapsed=0:00:52.08    \nframe=  309 fps=5.9 q=29.0 size=    6400KiB time=00:00:05.10 bitrate=10280.2kbits/s speed=0.0969x elapsed=0:00:52.65    \nframe=  316 fps=5.9 q=29.0 size=    6400KiB time=00:00:05.23 bitrate=10018.3kbits/s speed=0.0983x elapsed=0:00:53.21    \nframe=  325 fps=6.0 q=29.0 size=    6656KiB time=00:00:05.38 bitrate=10128.7kbits/s speed= 0.1x elapsed=0:00:53.75    \nframe=  327 fps=6.0 q=29.0 size=    6656KiB time=00:00:05.41 bitrate=10066.4kbits/s speed=0.0997x elapsed=0:00:54.32    \nframe=  327 fps=6.0 q=29.0 size=    6656KiB time=00:00:05.41 bitrate=10066.4kbits/s speed=0.0987x elapsed=0:00:54.87    \nframe=  327 fps=5.9 q=29.0 size=    6656KiB time=00:00:05.41 bitrate=10066.4kbits/s speed=0.0977x elapsed=0:00:55.44    \nframe=  327 fps=5.8 q=29.0 size=    6656KiB time=00:00:05.41 bitrate=10066.4kbits/s speed=0.0967x elapsed=0:00:56.00    \nframe=  329 fps=5.8 q=29.0 size=    6656KiB time=00:00:05.43 bitrate=10035.5kbits/s speed=0.096x elapsed=0:00:56.56    \nframe=  338 fps=5.9 q=30.0 size=    6912KiB time=00:00:05.60 bitrate=10111.3kbits/s speed=0.098x elapsed=0:00:57.13    \nframe=  343 fps=5.9 q=30.0 size=    6912KiB time=00:00:05.66 bitrate=9992.4kbits/s speed=0.0982x elapsed=0:00:57.70    \nframe=  347 fps=6.0 q=30.0 size=    7168KiB time=00:00:05.75 bitrate=10212.3kbits/s speed=0.0987x elapsed=0:00:58.26    \nframe=  348 fps=5.9 q=30.0 size=    7168KiB time=00:00:05.76 bitrate=10182.8kbits/s speed=0.098x elapsed=0:00:58.82    \nframe=  355 fps=6.0 q=30.0 size=    7168KiB time=00:00:05.85 bitrate=10037.7kbits/s speed=0.0985x elapsed=0:00:59.36    \nframe=  359 fps=6.0 q=30.0 size=    7424KiB time=00:00:05.95 bitrate=10221.5kbits/s speed=0.0993x elapsed=0:00:59.92    \nframe=  359 fps=5.9 q=30.0 size=    7424KiB time=00:00:05.95 bitrate=10221.5kbits/s speed=0.0984x elapsed=0:01:00.47    \nframe=  363 fps=5.9 q=30.0 size=    7424KiB time=00:00:06.01 bitrate=10108.2kbits/s speed=0.0986x elapsed=0:01:01.03    \nframe=  367 fps=6.0 q=30.0 size=    7424KiB time=00:00:06.08 bitrate=9997.4kbits/s speed=0.0987x elapsed=0:01:01.62    \nframe=  377 fps=6.1 q=30.0 size=    7680KiB time=00:00:06.25 bitrate=10066.4kbits/s speed= 0.1x elapsed=0:01:02.20    \nframe=  379 fps=6.0 q=30.0 size=    7680KiB time=00:00:06.28 bitrate=10013.0kbits/s speed= 0.1x elapsed=0:01:02.78    \nframe=  379 fps=6.0 q=30.0 size=    7680KiB time=00:00:06.28 bitrate=10013.0kbits/s speed=0.0992x elapsed=0:01:03.34    \nframe=  379 fps=5.9 q=30.0 size=    7680KiB time=00:00:06.28 bitrate=10013.0kbits/s speed=0.0983x elapsed=0:01:03.89    \nframe=  379 fps=5.9 q=30.0 size=    7680KiB time=00:00:06.28 bitrate=10013.0kbits/s speed=0.0975x elapsed=0:01:04.44    \nframe=  383 fps=5.9 q=30.0 size=    7936KiB time=00:00:06.31 bitrate=10292.2kbits/s speed=0.0972x elapsed=0:01:05.00    \nframe=  393 fps=6.0 q=30.0 size=    8192KiB time=00:00:06.46 bitrate=10377.7kbits/s speed=0.0986x elapsed=0:01:05.56    \nframe=  395 fps=6.0 q=30.0 size=    8192KiB time=00:00:06.55 bitrate=10245.7kbits/s speed=0.099x elapsed=0:01:06.13    \nframe=  399 fps=6.0 q=30.0 size=    8192KiB time=00:00:06.61 bitrate=10142.5kbits/s speed=0.0992x elapsed=0:01:06.68    \nframe=  399 fps=5.9 q=30.0 size=    8192KiB time=00:00:06.61 bitrate=10142.5kbits/s speed=0.0984x elapsed=0:01:07.26    \nframe=  399 fps=5.9 q=30.0 size=    8192KiB time=00:00:06.61 bitrate=10142.5kbits/s speed=0.0976x elapsed=0:01:07.82    \nframe=  399 fps=5.8 q=30.0 size=    8192KiB time=00:00:06.61 bitrate=10142.5kbits/s speed=0.0968x elapsed=0:01:08.38    \nframe=  401 fps=5.8 q=30.0 size=    8192KiB time=00:00:06.63 bitrate=10117.0kbits/s speed=0.0962x elapsed=0:01:08.95    \nframe=  407 fps=5.9 q=30.0 size=    8448KiB time=00:00:06.75 bitrate=10252.8kbits/s speed=0.0971x elapsed=0:01:09.52    \nframe=  417 fps=6.0 q=30.0 size=    8704KiB time=00:00:06.90 bitrate=10333.8kbits/s speed=0.0985x elapsed=0:01:10.08    \nframe=  419 fps=5.9 q=30.0 size=    8704KiB time=00:00:06.95 bitrate=10259.5kbits/s speed=0.0984x elapsed=0:01:10.65    \nframe=  419 fps=5.9 q=30.0 size=    8704KiB time=00:00:06.95 bitrate=10259.5kbits/s speed=0.0976x elapsed=0:01:11.20    \nframe=  419 fps=5.8 q=30.0 size=    8704KiB time=00:00:06.95 bitrate=10259.5kbits/s speed=0.0968x elapsed=0:01:11.76    \nframe=  419 fps=5.8 q=30.0 size=    8704KiB time=00:00:06.95 bitrate=10259.5kbits/s speed=0.0961x elapsed=0:01:12.32    \nframe=  427 fps=5.9 q=30.0 size=    8704KiB time=00:00:07.08 bitrate=10066.4kbits/s speed=0.0972x elapsed=0:01:12.86    \nframe=  435 fps=5.9 q=31.0 size=    8960KiB time=00:00:07.21 bitrate=10171.0kbits/s speed=0.0983x elapsed=0:01:13.42    \nframe=  443 fps=6.0 q=31.0 size=    9216KiB time=00:00:07.35 bitrate=10271.8kbits/s speed=0.0991x elapsed=0:01:14.14    \nframe=  454 fps=6.1 q=30.0 size=    9472KiB time=00:00:07.35 bitrate=10557.1kbits/s speed=0.0982x elapsed=0:01:14.86    \nframe=  463 fps=6.1 q=30.0 size=    9472KiB time=00:00:07.61 bitrate=10187.5kbits/s speed=0.101x elapsed=0:01:15.75    \nframe=  463 fps=6.0 q=30.0 size=    9472KiB time=00:00:07.68 bitrate=10099.1kbits/s speed= 0.1x elapsed=0:01:16.63    \nframe=  471 fps=6.1 q=30.0 size=    9728KiB time=00:00:07.70 bitrate=10349.6kbits/s speed=0.0997x elapsed=0:01:17.25    \nframe=  471 fps=6.0 q=30.0 size=    9728KiB time=00:00:07.81 bitrate=10195.2kbits/s speed= 0.1x elapsed=0:01:17.90    \nframe=  478 fps=6.1 q=30.0 size=    9984KiB time=00:00:07.81 bitrate=10463.5kbits/s speed=0.0996x elapsed=0:01:18.47    \nframe=  482 fps=6.1 q=30.0 size=    9984KiB time=00:00:08.00 bitrate=10223.7kbits/s speed=0.101x elapsed=0:01:19.27    \nframe=  491 fps=6.2 q=31.0 size=   10240KiB time=00:00:08.15 bitrate=10292.8kbits/s speed=0.102x elapsed=0:01:19.80    \nframe=  491 fps=6.1 q=31.0 size=   10240KiB time=00:00:08.15 bitrate=10292.8kbits/s speed=0.101x elapsed=0:01:20.33    \nframe=  496 fps=6.1 q=31.0 size=   10240KiB time=00:00:08.21 bitrate=10209.3kbits/s speed=0.102x elapsed=0:01:20.88    \nframe=  508 fps=6.2 q=30.0 size=   10752KiB time=00:00:08.43 bitrate=10444.4kbits/s speed=0.104x elapsed=0:01:21.45    \nframe=  509 fps=6.2 q=30.0 size=   10752KiB time=00:00:08.45 bitrate=10423.8kbits/s speed=0.103x elapsed=0:01:21.98    \nframe=  509 fps=6.2 q=30.0 size=   10752KiB time=00:00:08.45 bitrate=10423.8kbits/s speed=0.102x elapsed=0:01:22.50    \nframe=  520 fps=6.3 q=30.0 size=   11008KiB time=00:00:08.56 bitrate=10526.6kbits/s speed=0.103x elapsed=0:01:23.09    \nframe=  529 fps=6.3 q=30.0 size=   11008KiB time=00:00:08.78 bitrate=10266.9kbits/s speed=0.105x elapsed=0:01:23.82    \nframe=  541 fps=6.4 q=30.0 size=   11264KiB time=00:00:08.98 bitrate=10271.8kbits/s speed=0.107x elapsed=0:01:24.34    \nframe=  550 fps=6.5 q=30.0 size=   11520KiB time=00:00:09.13 bitrate=10332.7kbits/s speed=0.108x elapsed=0:01:24.85    \nframe=  553 fps=6.5 q=30.0 size=   11520KiB time=00:00:09.18 bitrate=10276.5kbits/s speed=0.108x elapsed=0:01:25.37    \nframe=  561 fps=6.5 q=30.0 size=   11520KiB time=00:00:09.31 bitrate=10129.4kbits/s speed=0.108x elapsed=0:01:25.89    \nframe=  569 fps=6.6 q=28.0 size=   11776KiB time=00:00:09.45 bitrate=10208.4kbits/s speed=0.109x elapsed=0:01:26.40    \nframe=  569 fps=6.5 q=28.0 size=   11776KiB time=00:00:09.45 bitrate=10208.4kbits/s speed=0.109x elapsed=0:01:26.91    \nframe=  569 fps=6.5 q=28.0 size=   11776KiB time=00:00:09.45 bitrate=10208.4kbits/s speed=0.108x elapsed=0:01:27.44    \nframe=  573 fps=6.5 q=27.0 size=   11776KiB time=00:00:09.51 bitrate=10136.9kbits/s speed=0.108x elapsed=0:01:27.94    \nframe=  573 fps=6.5 q=27.0 size=   11776KiB time=00:00:09.51 bitrate=10136.9kbits/s speed=0.108x elapsed=0:01:28.46    \nframe=  583 fps=6.6 q=29.0 size=   12032KiB time=00:00:09.68 bitrate=10179.0kbits/s speed=0.109x elapsed=0:01:28.98    \nframe=  590 fps=6.6 q=-1.0 size=   12288KiB time=00:00:09.80 bitrate=10271.8kbits/s speed=0.109x elapsed=0:01:29.50    \nframe=  593 fps=6.6 q=-1.0 size=   12288KiB time=00:00:09.85 bitrate=10219.7kbits/s speed=0.109x elapsed=0:01:30.01    \n[mp4 @ 00000230f413ba00] Starting second pass: moving the moov atom to the beginning of the file\n[out#0/mp4 @ 00000230f413a8c0] video:12478KiB audio:0KiB subtitle:0KiB other streams:0KiB global headers:0KiB muxing overhead: 0.064259%\nframe=  600 fps=6.6 q=-1.0 Lsize=   12486KiB time=00:00:09.96 bitrate=10263.1kbits/s speed=0.11x elapsed=0:01:30.30    \n[libx264 @ 00000230f413cd40] frame I:3     Avg QP:25.43  size:303484\n[libx264 @ 00000230f413cd40] frame P:151   Avg QP:27.70  size: 60371\n[libx264 @ 00000230f413cd40] frame B:446   Avg QP:32.94  size:  6167\n[libx264 @ 00000230f413cd40] consecutive B-frames:  0.8%  0.0%  0.5% 98.7%\n[libx264 @ 00000230f413cd40] mb I  I16..4: 11.6% 73.6% 14.8%\n[libx264 @ 00000230f413cd40] mb P  I16..4:  0.1%  2.0%  0.1%  P16..4: 44.6% 16.1% 12.5%  0.0%  0.0%    skip:24.7%\n[libx264 @ 00000230f413cd40] mb B  I16..4:  0.0%  0.0%  0.0%  B16..8: 47.5%  1.7%  0.4%  direct: 0.9%  skip:49.4%  L0:46.0% L1:51.6% BI: 2.4%\n[libx264 @ 00000230f413cd40] 8x8 transform intra:81.3% inter:58.7%\n[libx264 @ 00000230f413cd40] direct mvs  spatial:97.8% temporal:2.2%\n[libx264 @ 00000230f413cd40] coded y,uvDC,uvAC intra: 89.8% 53.9% 33.3% inter: 9.2% 4.0% 0.5%\n[libx264 @ 00000230f413cd40] i16 v,h,dc,p: 51% 13%  6% 30%\n[libx264 @ 00000230f413cd40] i8 v,h,dc,ddl,ddr,vr,hd,vl,hu: 14% 10% 11% 10% 10%  8% 10%  8% 19%\n[libx264 @ 00000230f413cd40] i4 v,h,dc,ddl,ddr,vr,hd,vl,hu: 16%  7%  4% 10% 11% 10% 11% 10% 21%\n[libx264 @ 00000230f413cd40] i8c dc,h,v,p: 42% 38% 14%  7%\n[libx264 @ 00000230f413cd40] Weighted P-Frames: Y:9.9% UV:4.6%\n[libx264 @ 00000230f413cd40] ref P L0: 46.1% 19.1% 19.9%  7.7%  6.9%  0.3%\n[libx264 @ 00000230f413cd40] ref B L0: 78.2% 14.7%  5.8%  1.3%\n[libx264 @ 00000230f413cd40] ref B L1: 93.6%  6.4%\n[libx264 @ 00000230f413cd40] kb/s:10221.71\n",
  "seconds": 91.01183867454529,
  "probe_out": {}
}